<svg id="svg" version="1.1" xmlns="http://www.w3.org/2000/svg" xmlns:xlink="http://www.w3.org/1999/xlink" width="400" height="400" viewBox="0, 0, 400,400"><g id="svgg"><path id="path0" d="M185.547 6.367 C 185.439 6.476,183.506 6.677,181.250 6.815 C 178.994 6.952,176.885 7.132,176.563 7.215 C 176.240 7.298,174.746 7.482,173.242 7.624 C 170.973 7.837,166.995 8.456,160.938 9.538 C 160.400 9.633,159.346 9.822,158.594 9.956 C 157.842 10.090,156.436 10.381,155.469 10.602 C 154.502 10.824,153.271 11.082,152.734 11.177 C 152.197 11.271,151.318 11.512,150.781 11.712 C 150.244 11.912,148.311 12.425,146.484 12.852 C 144.658 13.279,140.527 14.519,137.305 15.607 C 134.082 16.695,131.059 17.673,130.587 17.781 C 128.218 18.321,109.218 26.555,107.617 27.736 C 107.243 28.013,103.034 30.302,100.586 31.562 C 99.941 31.894,99.326 32.276,99.219 32.411 C 99.111 32.546,97.969 33.243,96.680 33.959 C 95.391 34.676,94.207 35.458,94.049 35.697 C 93.891 35.937,93.759 36.000,93.756 35.837 C 93.748 35.452,88.647 38.759,86.076 40.814 C 85.401 41.355,84.663 41.797,84.436 41.797 C 84.209 41.797,83.844 42.104,83.625 42.480 C 83.406 42.856,83.222 43.022,83.215 42.848 C 83.208 42.675,82.119 43.378,80.795 44.411 C 79.471 45.444,77.118 47.256,75.567 48.438 C 74.016 49.619,71.957 51.289,70.991 52.148 C 70.026 53.008,68.116 54.676,66.747 55.857 C 63.916 58.297,53.427 68.719,50.781 71.721 C 47.208 75.774,43.564 80.144,42.383 81.793 C 41.953 82.392,41.121 83.438,40.534 84.117 C 39.946 84.796,39.463 85.471,39.459 85.617 C 39.456 85.762,39.193 86.142,38.874 86.461 C 38.305 87.030,35.761 90.634,33.418 94.191 C 29.058 100.810,23.428 110.559,21.041 115.625 C 20.383 117.021,19.223 119.482,18.463 121.094 C 16.955 124.288,15.658 127.245,15.633 127.542 C 15.624 127.646,15.165 128.742,14.614 129.979 C 13.535 132.396,9.043 145.564,7.984 149.414 C 6.722 154.003,5.561 158.820,5.345 160.365 C 5.224 161.228,4.961 162.368,4.759 162.900 C 4.557 163.432,4.282 164.658,4.148 165.625 C 4.013 166.592,3.718 168.410,3.490 169.665 C 3.263 170.921,3.023 172.513,2.956 173.205 C 2.889 173.896,2.734 174.803,2.612 175.219 C 2.490 175.636,2.279 177.119,2.145 178.516 C 2.010 179.912,1.830 181.582,1.744 182.227 C 0.961 188.116,0.712 195.402,0.904 206.836 C 1.113 219.339,1.190 220.341,2.911 233.069 C 3.002 233.747,3.259 235.329,3.480 236.585 C 3.702 237.840,3.976 239.482,4.090 240.234 C 4.204 240.986,4.464 242.305,4.668 243.164 C 4.873 244.023,5.507 246.816,6.078 249.370 C 6.649 251.924,7.363 254.604,7.664 255.325 C 7.965 256.047,8.196 256.682,8.176 256.736 C 7.890 257.516,13.223 273.302,15.618 278.768 C 16.075 279.811,16.603 281.016,16.792 281.445 C 20.101 288.978,26.232 301.093,26.978 301.570 C 27.152 301.682,27.488 302.210,27.724 302.742 C 27.960 303.275,28.718 304.617,29.408 305.725 C 30.099 306.833,31.185 308.590,31.821 309.631 C 32.458 310.672,33.117 311.582,33.286 311.654 C 33.455 311.725,33.594 312.018,33.594 312.305 C 33.594 312.591,33.730 312.884,33.897 312.956 C 34.064 313.027,35.018 314.335,36.016 315.861 C 37.015 317.387,38.073 318.881,38.368 319.181 C 38.663 319.481,39.470 320.553,40.161 321.563 C 41.792 323.947,46.103 329.212,50.776 334.529 C 54.534 338.805,65.755 349.721,70.091 353.320 C 71.127 354.180,72.203 355.103,72.482 355.371 C 72.762 355.640,73.171 355.859,73.390 355.859 C 73.610 355.859,73.939 356.126,74.121 356.452 C 74.415 356.977,75.981 358.238,79.450 360.742 C 80.045 361.172,80.913 361.852,81.379 362.253 C 82.486 363.205,86.850 366.154,90.370 368.327 C 91.907 369.276,93.252 370.170,93.359 370.314 C 93.467 370.458,94.751 371.263,96.213 372.104 C 97.675 372.945,99.627 374.072,100.551 374.609 C 103.412 376.273,111.256 380.469,111.505 380.469 C 111.635 380.469,113.010 381.063,114.562 381.789 C 118.233 383.508,121.130 384.757,121.875 384.942 C 121.982 384.969,122.686 385.268,123.438 385.607 C 125.624 386.594,129.963 388.331,130.533 388.447 C 130.820 388.506,131.318 388.663,131.641 388.796 C 133.084 389.392,141.564 392.185,142.322 392.314 C 142.785 392.393,143.428 392.565,143.750 392.695 C 144.794 393.119,151.673 394.864,154.883 395.520 C 156.602 395.871,158.359 396.242,158.789 396.345 C 159.219 396.447,160.625 396.679,161.914 396.860 C 163.203 397.041,164.521 397.290,164.844 397.413 C 165.166 397.537,166.221 397.717,167.188 397.815 C 169.895 398.087,175.517 398.839,176.172 399.017 C 178.947 399.768,206.244 400.124,213.477 399.503 C 217.779 399.133,223.680 398.494,225.000 398.255 C 225.537 398.157,226.636 397.983,227.441 397.867 C 228.247 397.751,229.565 397.561,230.371 397.446 C 231.765 397.245,232.543 397.108,234.766 396.669 C 235.303 396.563,236.270 396.380,236.914 396.263 C 242.192 395.304,251.730 392.762,258.008 390.643 C 261.230 389.555,264.224 388.582,264.660 388.481 C 265.510 388.284,275.691 384.242,276.845 383.644 C 277.227 383.446,279.385 382.449,281.641 381.429 C 283.896 380.408,287.500 378.608,289.648 377.429 C 296.033 373.925,296.257 373.800,297.070 373.308 C 297.500 373.048,298.595 372.356,299.504 371.769 C 300.413 371.183,301.267 370.703,301.403 370.703 C 301.538 370.703,302.780 369.912,304.163 368.945 C 305.546 367.979,306.845 367.188,307.050 367.188 C 307.255 367.188,307.422 367.012,307.422 366.797 C 307.422 366.582,307.605 366.406,307.829 366.406 C 308.053 366.406,308.448 366.230,308.708 366.014 C 308.967 365.799,310.617 364.612,312.373 363.378 C 314.129 362.143,315.982 360.781,316.490 360.352 C 316.998 359.922,318.550 358.698,319.938 357.632 C 321.325 356.566,322.900 355.308,323.438 354.837 C 323.975 354.365,325.381 353.144,326.563 352.122 C 327.744 351.100,329.098 349.853,329.571 349.351 C 330.044 348.849,330.558 348.437,330.714 348.438 C 331.341 348.438,343.949 335.352,348.253 330.234 C 351.460 326.421,351.825 325.966,354.182 322.852 C 355.320 321.348,356.423 319.909,356.633 319.655 C 357.523 318.574,362.500 311.390,362.500 311.185 C 362.500 311.062,363.379 309.665,364.453 308.082 C 365.527 306.499,366.406 305.057,366.406 304.879 C 366.406 304.700,366.652 304.276,366.953 303.937 C 367.253 303.598,368.072 302.266,368.772 300.977 C 369.472 299.688,370.732 297.402,371.571 295.898 C 373.428 292.570,378.516 281.972,378.516 281.431 C 378.516 281.327,378.885 280.408,379.336 279.390 C 380.660 276.400,380.766 276.141,382.162 272.461 C 383.360 269.302,384.342 266.508,384.633 265.430 C 384.691 265.215,385.360 263.018,386.121 260.547 C 387.855 254.912,389.328 249.437,390.062 245.898 C 390.874 241.981,392.957 230.055,392.882 229.750 C 392.847 229.608,393.034 227.998,393.297 226.172 C 394.651 216.783,394.836 191.483,393.620 182.031 C 393.275 179.346,392.902 176.441,392.792 175.576 C 392.615 174.191,391.090 165.291,390.852 164.258 C 390.803 164.043,390.546 162.813,390.281 161.523 C 389.277 156.630,388.187 152.394,386.862 148.242 C 386.109 145.879,385.411 143.541,385.313 143.047 C 385.117 142.063,384.121 139.039,383.486 137.500 C 383.264 136.963,383.040 136.317,382.987 136.066 C 382.809 135.222,380.835 130.243,379.336 126.860 C 378.885 125.842,378.516 124.895,378.516 124.755 C 378.516 124.616,377.836 123.076,377.005 121.333 C 376.175 119.590,374.954 117.021,374.293 115.625 C 372.819 112.511,368.749 104.955,368.402 104.688 C 368.262 104.580,367.930 104.053,367.664 103.516 C 367.397 102.979,366.832 102.012,366.407 101.367 C 365.982 100.723,365.500 99.932,365.337 99.609 C 364.614 98.186,359.376 90.291,358.718 89.633 C 358.435 89.350,358.203 88.951,358.203 88.748 C 358.203 88.544,357.938 88.157,357.615 87.889 C 357.291 87.620,356.071 86.060,354.903 84.423 C 352.514 81.073,351.069 79.249,349.546 77.657 C 348.973 77.059,348.446 76.411,348.374 76.216 C 347.690 74.376,329.098 55.807,324.023 51.896 C 323.379 51.400,322.617 50.767,322.329 50.491 C 322.042 50.214,321.163 49.507,320.376 48.920 C 319.589 48.332,318.508 47.456,317.973 46.973 C 317.438 46.489,316.793 46.094,316.540 46.094 C 316.288 46.094,316.022 45.929,315.951 45.727 C 315.879 45.525,315.254 44.953,314.562 44.457 C 313.870 43.961,311.898 42.544,310.180 41.309 C 308.462 40.073,306.875 39.062,306.653 39.063 C 306.431 39.063,306.250 38.876,306.250 38.649 C 306.250 38.421,306.089 38.335,305.893 38.456 C 305.696 38.577,305.477 38.530,305.404 38.351 C 305.144 37.704,298.099 33.358,297.559 33.511 C 297.397 33.556,297.266 33.418,297.266 33.203 C 297.266 32.988,297.002 32.813,296.680 32.813 C 296.357 32.813,296.094 32.649,296.094 32.448 C 296.094 32.248,295.698 31.963,295.215 31.816 C 294.731 31.669,294.072 31.328,293.750 31.059 C 292.452 29.976,282.332 25.009,275.000 21.857 C 273.389 21.164,271.325 20.269,270.414 19.869 C 269.504 19.468,268.603 19.141,268.413 19.141 C 268.223 19.141,267.299 18.800,266.358 18.385 C 265.418 17.969,264.186 17.545,263.621 17.442 C 263.056 17.340,262.046 16.973,261.375 16.626 C 260.705 16.279,260.156 16.090,260.156 16.206 C 260.156 16.322,259.538 16.158,258.782 15.843 C 258.026 15.527,257.279 15.240,257.122 15.205 C 256.965 15.169,256.436 14.989,255.947 14.803 C 255.458 14.617,254.667 14.390,254.189 14.299 C 253.711 14.208,251.738 13.666,249.805 13.095 C 247.871 12.523,245.938 12.003,245.508 11.939 C 245.078 11.875,244.463 11.716,244.141 11.586 C 243.818 11.457,243.115 11.271,242.578 11.174 C 242.041 11.076,240.283 10.708,238.672 10.356 C 233.946 9.322,225.066 7.893,220.471 7.426 C 218.128 7.188,215.684 6.898,215.039 6.781 C 213.492 6.500,185.799 6.111,185.547 6.367 M287.992 96.673 C 309.594 98.965,325.316 105.607,333.557 115.920 C 342.981 127.716,340.222 144.974,327.325 154.897 L 325.064 156.637 322.200 155.011 C 278.311 130.094,230.287 142.653,220.162 181.694 C 211.883 213.618,224.383 244.573,249.414 254.132 C 262.944 259.299,281.894 259.540,291.446 254.667 L 292.969 253.890 292.969 238.859 L 292.969 223.828 275.427 223.828 L 257.885 223.828 256.716 220.996 C 248.533 201.180,252.428 183.778,265.826 180.288 C 269.331 179.375,330.176 179.388,333.705 180.302 C 340.286 182.008,344.757 186.284,346.743 192.773 C 347.833 196.331,347.854 271.411,346.767 275.391 C 340.107 299.773,276.385 312.250,229.116 298.428 C 192.603 287.751,165.801 258.684,160.668 224.195 C 160.462 222.814,160.271 227.947,160.121 238.867 C 159.696 269.880,154.591 282.897,138.741 293.383 C 117.035 307.743,74.088 308.027,59.854 293.905 C 51.383 285.500,50.212 268.096,57.413 257.629 C 58.833 255.566,58.791 255.572,64.453 256.661 C 82.546 260.141,95.402 256.804,99.952 247.447 C 102.880 241.427,102.724 245.808,102.729 169.617 C 102.733 115.512,102.835 101.502,103.223 101.361 C 104.862 100.768,121.077 98.792,125.977 98.587 C 142.824 97.885,152.692 101.292,156.951 109.283 C 159.988 114.982,159.908 113.964,160.142 149.609 C 160.257 167.119,160.484 180.581,160.646 179.524 C 161.806 171.960,165.387 161.150,169.293 153.426 C 186.133 120.125,217.009 100.732,260.156 96.357 C 264.257 95.942,283.116 96.155,287.992 96.673 " stroke="none" fill="#b4fc04" fill-rule="evenodd"></path><path id="path1" d="M260.156 96.357 C 217.009 100.732,186.133 120.125,169.293 153.426 C 165.387 161.150,161.806 171.960,160.646 179.524 C 160.484 180.581,160.257 167.119,160.142 149.609 C 159.908 113.964,159.988 114.982,156.951 109.283 C 152.692 101.292,142.824 97.885,125.977 98.587 C 121.077 98.792,104.862 100.768,103.223 101.361 C 102.835 101.502,102.733 115.512,102.729 169.617 C 102.724 245.808,102.880 241.427,99.952 247.447 C 95.402 256.804,82.546 260.141,64.453 256.661 C 58.791 255.572,58.833 255.566,57.413 257.629 C 50.212 268.096,51.383 285.500,59.854 293.905 C 74.088 308.027,117.035 307.743,138.741 293.383 C 154.591 282.897,159.696 269.880,160.121 238.867 C 160.271 227.947,160.462 222.814,160.668 224.195 C 165.262 255.060,188.239 282.875,219.218 295.071 C 266.023 313.497,339.453 302.167,346.767 275.391 C 347.854 271.411,347.833 196.331,346.743 192.773 C 344.757 186.284,340.286 182.008,333.705 180.302 C 330.176 179.388,269.331 179.375,265.826 180.288 C 252.428 183.778,248.533 201.180,256.716 220.996 L 257.885 223.828 275.427 223.828 L 292.969 223.828 292.969 238.859 L 292.969 253.890 291.446 254.667 C 281.894 259.540,262.944 259.299,249.414 254.132 C 224.383 244.573,211.883 213.618,220.162 181.694 C 230.287 142.653,278.311 130.094,322.200 155.011 L 325.064 156.637 327.325 154.897 C 340.222 144.974,342.981 127.716,333.557 115.920 C 325.316 105.607,309.594 98.965,287.992 96.673 C 283.116 96.155,264.257 95.942,260.156 96.357 " stroke="none" fill="#040404" fill-rule="evenodd"></path><path id="path2" d="" stroke="none" fill="#bcfc04" fill-rule="evenodd"></path><path id="path3" d="" stroke="none" fill="#b8bc04" fill-rule="evenodd"></path><path id="path4" d="" stroke="none" fill="#b8bc04" fill-rule="evenodd"></path></g></svg>